<?xml version="1.0" encoding="utf-8"?>
<!-- Generator: Adobe Illustrator 16.0.0, SVG Export Plug-In . SVG Version: 6.00 Build 0)  -->
<!DOCTYPE svg PUBLIC "-//W3C//DTD SVG 1.1//EN" "http://www.w3.org/Graphics/SVG/1.1/DTD/svg11.dtd">
<svg version="1.1" id="Layer_1" xmlns="http://www.w3.org/2000/svg" xmlns:xlink="http://www.w3.org/1999/xlink" x="0px" y="0px"
	 width="2244.464px" height="1386.488px" viewBox="0 0 2244.464 1386.488" enable-background="new 0 0 2244.464 1386.488"
	 xml:space="preserve">
<text transform="matrix(1 0 0 1 208.981 169.231)" fill="#010101" font-family="'GillSans-Bold'" font-size="100">LEVEL 1 </text>
<g>
	<text transform="matrix(1 0 0 1 1270.9678 169.231)" fill="#010101" font-family="'GillSans-Bold'" font-size="100">LEVEL 2 </text>
</g>
<path fill="none" stroke="#000000" stroke-width="5" stroke-miterlimit="10" d="M725.695,1118.778
	c0-380.438-112.219-688.844-250.649-688.844S224.397,738.34,224.397,1118.778c0,23.84,0.441,47.398,1.301,70.617h498.695
	C725.254,1166.176,725.695,1142.618,725.695,1118.778z"/>
<circle fill="#010101" cx="308.958" cy="598.711" r="12.037"/>
<circle fill="#010101" cx="257.191" cy="765.622" r="12.037"/>
<circle fill="#010101" cx="475.046" cy="1143.062" r="12.037"/>
<circle fill="#010101" cx="475.046" cy="1189.395" r="12.037"/>
<circle fill="#010101" cx="231.397" cy="932.622" r="12.037"/>
<path fill="none" stroke="#000000" stroke-width="5" stroke-miterlimit="10" d="M1769.747,1118.777
	c0-380.438-112.22-688.843-250.648-688.843c-138.43,0-250.649,308.405-250.649,688.843c0,23.841,0.441,47.399,1.301,70.617h498.695
	C1769.307,1166.176,1769.747,1142.618,1769.747,1118.777z"/>
<circle fill="#010101" cx="1358.046" cy="598.71" r="12.037"/>
<circle fill="#010101" cx="1704.52" cy="658.239" r="12.037"/>
<circle fill="#010101" cx="1598.515" cy="598.71" r="12.037"/>
<circle fill="#010101" cx="1306.28" cy="765.621" r="12.037"/>
<circle fill="#010101" cx="1280.486" cy="932.621" r="12.037"/>
<circle fill="#010101" cx="1732.937" cy="755.738" r="12.037"/>
<circle fill="#010101" cx="1750.673" cy="844.7" r="12.037"/>
<circle fill="#010101" cx="1705.52" cy="944.659" r="12.037"/>
<circle fill="#010101" cx="639.818" cy="598.71" r="12.037"/>
<circle fill="#010101" cx="679.271" cy="718.738" r="12.037"/>
<circle fill="#010101" cx="705.007" cy="832.7" r="12.037"/>
<circle fill="#010101" cx="720.082" cy="944.657" r="12.037"/>
<path fill="none" stroke="#000000" stroke-width="5" stroke-miterlimit="10" d="M668.607,1088.53
	c0-293.791-86.66-531.954-193.561-531.954c-106.901,0-193.562,238.163-193.562,531.954c0,18.41,0.34,36.603,1.005,54.532h385.114
	C668.267,1125.132,668.607,1106.94,668.607,1088.53z"/>
<path fill="none" stroke="#000000" stroke-width="5" stroke-miterlimit="10" d="M1712.66,1088.53
	c0-293.791-86.66-531.954-193.561-531.954c-106.902,0-193.562,238.163-193.562,531.954c0,18.41,0.34,36.603,1.005,54.532h385.114
	C1712.32,1125.132,1712.66,1106.94,1712.66,1088.53z"/>
<g>
	<text transform="matrix(1 0 0 1 98.8647 944.6567)" font-family="'GillSans'" font-size="72">351</text>
</g>
<g>
	<text transform="matrix(1 0 0 1 118.8916 777.6587)" font-family="'GillSans'" font-size="72">352</text>
</g>
<g>
	<text transform="matrix(1 0 0 1 158.3306 610.7485)" font-family="'GillSans'" font-size="72">353</text>
</g>
<g>
	<text transform="matrix(1 0 0 1 747.9302 970.4087)" font-family="'GillSans'" font-size="72">342A</text>
</g>
<g>
	<text transform="matrix(1 0 0 1 747.9302 849.8188)" font-family="'GillSans'" font-size="72">343</text>
</g>
<g>
	<text transform="matrix(1 0 0 1 725.6948 730.7749)" font-family="'GillSans'" font-size="72">361</text>
</g>
<g>
	<text transform="matrix(1 0 0 1 692.9707 610.7485)" font-family="'GillSans'" font-size="72">362</text>
</g>
<g>
	<text transform="matrix(1 0 0 1 1082.3818 956.6938)" font-family="'GillSans'" font-size="72">252A</text>
</g>
<g>
	<text transform="matrix(1 0 0 1 1127.8911 777.6577)" font-family="'GillSans'" font-size="72">252B</text>
</g>
<g>
	<text transform="matrix(1 0 0 1 1217.5464 624.2026)" font-family="'GillSans'" font-size="72">253</text>
</g>
<g>
	<text transform="matrix(1 0 0 1 1812.9092 956.6938)"><tspan x="0" y="0" font-family="'GillSans'" font-size="48">GRAND </tspan><tspan x="0" y="57.6" font-family="'GillSans'" font-size="48">AMPHITHÉÂTRE</tspan></text>
</g>
<g>
	<text transform="matrix(1 0 0 1 1717.5566 492.0796)"><tspan x="0" y="0" font-family="'GillSans'" font-size="48">AMPHITHÉÂTRE</tspan><tspan x="0" y="57.6" font-family="'GillSans'" font-size="48">BLEU</tspan></text>
</g>
<g>
	<text transform="matrix(1 0 0 1 1812.9092 868.5864)" font-family="'GillSans'" font-size="72">241</text>
</g>
<g>
	<text transform="matrix(1 0 0 1 1791.2871 765.7749)" font-family="'GillSans'" font-size="72">242</text>
</g>
<g>
	<text transform="matrix(1 0 0 1 1769.7471 670.2759)" font-family="'GillSans'" font-size="72">243</text>
</g>
<line fill="none" stroke="#000000" stroke-width="4" stroke-miterlimit="10" x1="1598.516" y1="598.711" x2="1693.483" y2="513.514"/>
<line fill="none" stroke="#000000" stroke-width="4" stroke-miterlimit="10" x1="1717.557" y1="944.659" x2="1791.287" y2="944.659"/>
<line fill="none" stroke="#000000" stroke-width="4" stroke-miterlimit="10" x1="477.083" y1="1189.395" x2="381.552" y2="1284.926"/>
<line fill="none" stroke="#000000" stroke-width="4" stroke-miterlimit="10" x1="477.083" y1="1141.629" x2="381.552" y2="1237.161"/>
<g>
	<text transform="matrix(1 0 0 1 180.6084 1237.1606)" font-family="'GillSans'" font-size="48">HAVANA</text>
</g>
<g>
	<text transform="matrix(1 0 0 1 118.8916 1303.8892)" font-family="'GillSans'" font-size="48">BORDEAUX</text>
</g>
<g>
	<g>
		<path d="M1790.41,478.176c3.225,0,3.225-5,0-5S1787.186,478.176,1790.41,478.176L1790.41,478.176z"/>
	</g>
</g>
</svg>
