<?xml version="1.0" encoding="utf-8"?>
<!-- Generator: Adobe Illustrator 16.0.0, SVG Export Plug-In . SVG Version: 6.00 Build 0)  -->
<!DOCTYPE svg PUBLIC "-//W3C//DTD SVG 1.1//EN" "http://www.w3.org/Graphics/SVG/1.1/DTD/svg11.dtd">
<svg version="1.1" id="Layer_1" xmlns="http://www.w3.org/2000/svg" xmlns:xlink="http://www.w3.org/1999/xlink" x="0px" y="0px"
	 width="595.275px" height="649.733px" viewBox="0 26.733 595.275 649.733" enable-background="new 0 26.733 595.275 649.733"
	 xml:space="preserve">
<g id="Map">
	<path fill="none" stroke="#5D82B0" stroke-width="3" stroke-linecap="round" stroke-linejoin="round" stroke-miterlimit="10" d="
		M391.409,284.805c-67.252-46.964-293.958,35.645-301.263,44.642"/>
	
		<image overflow="visible" enable-background="new    " width="278" height="115" xlink:href="A1F07FD15CAB7013.png"  transform="matrix(0.119 0 0 0.1168 240.7539 643.46)">
	</image>
	<path fill="none" stroke="#36348E" stroke-width="3" stroke-linecap="round" stroke-miterlimit="10" d="M256.784,577.172
		c-84.028-10.174-156.451-72.152-166.638-94.117"/>
	
		<path opacity="0.2" fill="none" stroke="#000000" stroke-width="3" stroke-linecap="round" stroke-miterlimit="10" enable-background="new    " d="
		M257.631,511.926c-84.028-10.174-156.451-72.151-166.638-94.117"/>
	<path fill="none" d="M90.146,107.702c10.187,21.964,82.609,83.943,166.638,94.117"/>
	<path fill="none" stroke="#924051" stroke-width="3" stroke-linecap="round" stroke-linejoin="round" stroke-miterlimit="10" d="
		M224.618,195.394c9.54,3.313,20.094,5.886,31.095,6.918"/>
	<path fill="none" stroke="#8E9091" stroke-width="3" stroke-linecap="round" stroke-linejoin="round" stroke-miterlimit="10" d="
		M127.447,146.101c25.665,17.218,57.943,34.963,94.354,49.292"/>
	<path fill="none" stroke="#D19151" stroke-width="3" stroke-linecap="round" stroke-linejoin="round" stroke-miterlimit="10" d="
		M89.534,107.116c4.013,8.651,17.682,23.512,37.913,38.97"/>
	<path fill="none" stroke="#D19151" stroke-width="3" stroke-linecap="round" stroke-linejoin="round" stroke-miterlimit="10" d="
		M391.409,63.061C324.157,16.096,97.451,98.705,90.146,107.702"/>
	<path fill="none" stroke="#A24E54" stroke-width="3" stroke-linecap="round" stroke-linejoin="round" stroke-miterlimit="10" d="
		M256.784,201.819c0,0,201.879-91.795,134.625-138.759"/>
	<path fill="none" stroke="#407298" stroke-width="3" stroke-linecap="round" stroke-linejoin="round" stroke-miterlimit="10" d="
		M256.784,423.562c0,0,201.881-91.794,134.625-138.758"/>
	<circle fill="#FFFFFF" stroke="#D19151" stroke-width="3" stroke-miterlimit="10" cx="126.59" cy="145.756" r="6.658"/>
	<circle fill="#FFFFFF" stroke="#924051" stroke-width="3" stroke-miterlimit="10" cx="221.802" cy="195.394" r="6.658"/>
	<circle fill="#FFFFFF" stroke="#A24E54" stroke-miterlimit="10" cx="306.95" cy="177.281" r="6.658"/>
	<circle fill="#FFFFFF" stroke="#A24E54" stroke-miterlimit="10" cx="353.638" cy="145.756" r="6.658"/>
	<circle fill="#FFFFFF" stroke="#A24E54" stroke-miterlimit="10" cx="385.019" cy="120.943" r="6.658"/>
	<circle fill="#FFFFFF" stroke="#A24E54" stroke-miterlimit="10" cx="404.591" cy="88.254" r="6.658"/>
	<circle fill="#FFFFFF" stroke="#36348E" stroke-width="3" stroke-miterlimit="10" cx="260.631" cy="577.172" r="6.658"/>
	<circle fill="#FFFFFF" stroke="#36348E" stroke-width="3" stroke-miterlimit="10" cx="152.69" cy="538.516" r="11.178"/>
	<g opacity="0.2">
		<g>
			
				<line fill="none" stroke="#000000" stroke-width="3" stroke-miterlimit="10" x1="260.631" y1="586.394" x2="260.631" y2="587.394"/>
			
				<line fill="none" stroke="#000000" stroke-width="3" stroke-miterlimit="10" stroke-dasharray="2,2" x1="260.631" y1="589.394" x2="260.631" y2="592.394"/>
			
				<line fill="none" stroke="#000000" stroke-width="3" stroke-miterlimit="10" stroke-dasharray="2,2,2,2" x1="260.631" y1="593.394" x2="260.631" y2="640.395"/>
			
				<line fill="none" stroke="#000000" stroke-width="3" stroke-miterlimit="10" x1="260.631" y1="641.395" x2="260.631" y2="642.395"/>
		</g>
	</g>
	<path fill="none" stroke="#50784A" stroke-width="3" stroke-linecap="round" stroke-linejoin="round" stroke-miterlimit="10" d="
		M391.409,284.805c-57.143-39.904-229.4,13.735-284.381,36.283"/>
	<circle fill="#FFFFFF" stroke="#407298" stroke-width="3" stroke-miterlimit="10" cx="391.409" cy="284.805" r="6.658"/>
	
		<path fill="#5A4678" stroke="#5A4678" stroke-width="3" stroke-linecap="round" stroke-linejoin="round" stroke-miterlimit="10" d="
		M281.246,411.605c-84.028-10.133-156.177-71.768-166.363-93.64c-9.728,3.989-23.639,10.127-24.736,11.479
		c10.187,21.964,82.609,83.942,166.638,94.117h0.308C257.092,423.562,270.988,416.717,281.246,411.605"/>
	<circle fill="#FFFFFF" stroke="#5A4678" stroke-width="3" stroke-miterlimit="10" cx="201.882" cy="409.974" r="6.658"/>
	<g>
		<g>
			
				<line fill="none" stroke="#8E9091" stroke-width="0.75" stroke-miterlimit="10" x1="111.033" y1="505.061" x2="111.033" y2="504.061"/>
			
				<line fill="none" stroke="#8E9091" stroke-width="0.75" stroke-miterlimit="10" stroke-dasharray="2.0091,2.0091" x1="111.033" y1="502.052" x2="111.033" y2="499.038"/>
			
				<line fill="none" stroke="#8E9091" stroke-width="0.75" stroke-miterlimit="10" stroke-dasharray="2.0091,2.0091,2.0091,2.0091" x1="111.033" y1="498.033" x2="111.033" y2="137.398"/>
			
				<line fill="none" stroke="#8E9091" stroke-width="0.75" stroke-miterlimit="10" x1="111.033" y1="136.394" x2="111.033" y2="135.394"/>
		</g>
	</g>
	<path fill="none" d="M96.681,326.285c10.187,21.965,82.609,83.942,166.638,94.117"/>
	<text transform="matrix(0.7491 0.6625 -0.6625 0.7491 117.085 350.665)" fill="#FFFFFF" font-family="'GillSans'" font-size="13">H</text>
	
		<text transform="matrix(0.7491 0.6625 -0.6625 0.7491 124.1494 356.8984)" fill="#FFFFFF" font-family="'GillSans'" font-size="13">A</text>
	
		<text transform="matrix(0.7491 0.6625 -0.6625 0.7491 130.8242 362.3457)" fill="#FFFFFF" font-family="'GillSans'" font-size="13">L</text>
	
		<text transform="matrix(0.7491 0.6625 -0.6625 0.7491 135.8301 366.2178)" fill="#FFFFFF" font-family="'GillSans'" font-size="13">L</text>
	
		<text transform="matrix(0.7491 0.6625 -0.6625 0.7491 140.9463 369.9756)" fill="#FFFFFF" font-family="'GillSans'" font-size="13"> </text>
	
		<text transform="matrix(0.7491 0.6625 -0.6625 0.7491 143.8408 372.0801)" fill="#FFFFFF" font-family="'GillSans'" font-size="13">M</text>
	
		<text transform="matrix(0.7491 0.6625 -0.6625 0.7491 152.1924 377.7256)" fill="#FFFFFF" font-family="'GillSans'" font-size="13">A</text>
	
		<text transform="matrix(0.7491 0.6625 -0.6625 0.7491 159.4941 382.3203)" fill="#FFFFFF" font-family="'GillSans'" font-size="13">I</text>
	
		<text transform="matrix(0.7491 0.6625 -0.6625 0.7491 162.2246 383.9922)" fill="#FFFFFF" font-family="'GillSans'" font-size="13">L</text>
	<text transform="matrix(0.7491 0.6625 -0.6625 0.7491 167.707 387.2021)" fill="#FFFFFF" font-family="'GillSans'" font-size="13">L</text>
	
		<text transform="matrix(0.7491 0.6625 -0.6625 0.7491 173.1904 390.2979)" fill="#FFFFFF" font-family="'GillSans'" font-size="13">O</text>
	
		<text transform="matrix(0.7491 0.6625 -0.6625 0.7491 182.6338 395.2041)" fill="#FFFFFF" font-family="'GillSans'" font-size="13">T</text>
	<g>
		<g>
			
				<line fill="none" stroke="#8E9091" stroke-width="0.75" stroke-miterlimit="10" x1="212.194" y1="564.394" x2="212.194" y2="563.394"/>
			
				<line fill="none" stroke="#8E9091" stroke-width="0.75" stroke-miterlimit="10" stroke-dasharray="2.0073,2.0073" x1="212.194" y1="561.387" x2="212.194" y2="558.375"/>
			
				<line fill="none" stroke="#8E9091" stroke-width="0.75" stroke-miterlimit="10" stroke-dasharray="2.0073,2.0073,2.0073,2.0073" x1="212.194" y1="557.372" x2="212.194" y2="197.068"/>
			
				<line fill="none" stroke="#8E9091" stroke-width="0.75" stroke-miterlimit="10" x1="212.194" y1="196.064" x2="212.194" y2="195.064"/>
		</g>
	</g>
	<g>
		<path fill="#FFFFFF" d="M101.053,200.08c0,2.12,1.717,3.836,3.836,3.836h15.209c2.12,0,3.839-1.716,3.839-3.836v-12.03
			c0-2.119-1.719-3.838-3.839-3.838h-15.209c-2.12,0-3.836,1.719-3.836,3.838V200.08z"/>
		<g>
			<path d="M103.912,198.221c0.093-0.251,0.167-0.512,0.286-0.751c0.385-0.789,1.03-1.188,1.906-1.21c0.049,0,0.096-0.006,0.143,0
				c1.08,0.186,1.94-0.158,2.57-1.062c0.053-0.078,0.13-0.133,0.196-0.202c0.338-0.341,0.813-0.63,0.978-1.043
				c0.174-0.438,0.053-0.993,0.059-1.496c0.003-0.459-0.009-0.916,0.003-1.372c0.016-0.739,0.487-1.192,1.198-1.18
				c0.661,0.016,1.083,0.48,1.086,1.208c0.003,0.17,0.003,0.344,0.003,0.624c0.37-0.375,0.67-0.68,0.972-0.984
				c0.407-0.407,0.829-0.797,1.213-1.223c0.506-0.556,1.13-0.838,1.862-0.857c0.882-0.021,1.763-0.037,2.642,0.003
				c0.913,0.04,1.54,0.555,1.875,1.378c0.329,0.816,0.183,1.599-0.378,2.275c-0.425,0.512-0.959,0.807-1.661,0.758
				c-0.397-0.031-0.798,0.009-1.195-0.013c-0.36-0.019-0.621,0.115-0.869,0.366c-2.12,2.129-4.252,4.243-6.375,6.372
				c-0.593,0.596-1.275,0.925-2.139,0.888c-0.655-0.028-1.312-0.037-1.971,0.003c-1.229,0.065-2.064-0.761-2.325-1.834
				c-0.019-0.078-0.05-0.152-0.078-0.229C103.912,198.5,103.912,198.361,103.912,198.221z M107.363,199.562
				c0.289,0,0.587-0.016,0.875,0.003c0.59,0.037,1.049-0.167,1.471-0.596c2.136-2.163,4.299-4.299,6.438-6.459
				c0.391-0.394,0.822-0.59,1.375-0.565c0.435,0.022,0.869,0.009,1.304,0.006c0.636-0.009,1.077-0.457,1.086-1.089
				c0.006-0.438-0.425-1.093-1.09-1.062c-0.763,0.037-1.527,0.021-2.288,0.003c-0.49-0.009-0.869,0.155-1.22,0.509
				c-2.204,2.222-4.426,4.432-6.636,6.651c-0.312,0.313-0.667,0.465-1.099,0.462c-0.469-0.006-0.938-0.006-1.409,0
				c-0.671,0.003-1.071,0.37-1.081,0.981c-0.009,0.646,0.438,1.133,1.074,1.151C106.562,199.571,106.962,199.562,107.363,199.562z"
				/>
			<path d="M110.048,188.605c-0.006-0.624,0.534-1.176,1.151-1.179c0.612-0.003,1.155,0.552,1.152,1.176
				c0,0.624-0.509,1.139-1.133,1.151C110.588,189.766,110.051,189.242,110.048,188.605z"/>
		</g>
	</g>
	<g>
		<path fill="#FFFFFF" d="M101.053,405.41c0,2.12,1.717,3.836,3.836,3.836h15.209c2.12,0,3.839-1.716,3.839-3.836v-12.03
			c0-2.118-1.719-3.838-3.839-3.838h-15.209c-2.12,0-3.836,1.72-3.836,3.838V405.41z"/>
		<g>
			<path d="M103.912,403.551c0.093-0.251,0.167-0.512,0.286-0.751c0.385-0.788,1.03-1.188,1.906-1.21c0.049,0,0.096-0.007,0.143,0
				c1.08,0.187,1.94-0.158,2.57-1.062c0.053-0.077,0.13-0.134,0.196-0.201c0.338-0.342,0.813-0.631,0.978-1.043
				c0.174-0.438,0.053-0.993,0.059-1.496c0.003-0.459-0.009-0.916,0.003-1.371c0.016-0.74,0.487-1.193,1.198-1.18
				c0.661,0.016,1.083,0.479,1.086,1.207c0.003,0.17,0.003,0.344,0.003,0.623c0.37-0.375,0.67-0.681,0.972-0.983
				c0.407-0.407,0.829-0.798,1.213-1.223c0.506-0.557,1.13-0.839,1.862-0.856c0.882-0.021,1.763-0.037,2.642,0.003
				c0.913,0.04,1.54,0.557,1.875,1.378c0.329,0.816,0.183,1.6-0.378,2.275c-0.425,0.512-0.959,0.807-1.661,0.758
				c-0.397-0.031-0.798,0.009-1.195-0.014c-0.36-0.019-0.621,0.114-0.869,0.366c-2.12,2.13-4.252,4.242-6.375,6.371
				c-0.593,0.598-1.275,0.927-2.139,0.89c-0.655-0.028-1.312-0.037-1.971,0.003c-1.229,0.064-2.064-0.761-2.325-1.835
				c-0.019-0.077-0.05-0.152-0.078-0.229C103.912,403.83,103.912,403.691,103.912,403.551z M107.363,404.893
				c0.289,0,0.587-0.016,0.875,0.002c0.59,0.037,1.049-0.166,1.471-0.596c2.136-2.163,4.299-4.299,6.438-6.459
				c0.391-0.395,0.822-0.59,1.375-0.563c0.435,0.021,0.869,0.009,1.304,0.006c0.636-0.01,1.077-0.457,1.086-1.09
				c0.006-0.438-0.425-1.093-1.09-1.062c-0.763,0.037-1.527,0.021-2.288,0.002c-0.49-0.009-0.869,0.156-1.22,0.51
				c-2.204,2.224-4.426,4.433-6.636,6.651c-0.312,0.313-0.667,0.466-1.099,0.462c-0.469-0.006-0.938-0.006-1.409,0
				c-0.671,0.004-1.071,0.37-1.081,0.981c-0.009,0.646,0.438,1.133,1.074,1.15C106.562,404.901,106.962,404.893,107.363,404.893z"/>
			<path d="M110.048,393.936c-0.006-0.623,0.534-1.177,1.151-1.18c0.612-0.003,1.155,0.553,1.152,1.176
				c0,0.625-0.509,1.141-1.133,1.152C110.588,395.096,110.051,394.572,110.048,393.936z"/>
		</g>
	</g>
	<g>
		<path fill="#FFFFFF" d="M100.757,483.571c0,2.12,1.717,3.836,3.836,3.836h15.209c2.12,0,3.839-1.716,3.839-3.836v-12.03
			c0-2.118-1.719-3.838-3.839-3.838h-15.209c-2.12,0-3.836,1.72-3.836,3.838V483.571z"/>
		<g>
			<path d="M103.616,481.712c0.093-0.251,0.167-0.512,0.286-0.751c0.385-0.788,1.03-1.188,1.906-1.21c0.049,0,0.096-0.007,0.143,0
				c1.08,0.187,1.94-0.158,2.57-1.062c0.053-0.077,0.13-0.134,0.196-0.201c0.338-0.342,0.813-0.631,0.978-1.043
				c0.174-0.438,0.053-0.993,0.059-1.496c0.003-0.459-0.009-0.916,0.003-1.371c0.016-0.74,0.487-1.193,1.198-1.18
				c0.661,0.016,1.083,0.479,1.086,1.207c0.003,0.17,0.003,0.344,0.003,0.622c0.37-0.375,0.67-0.68,0.972-0.982
				c0.407-0.407,0.829-0.798,1.213-1.223c0.506-0.557,1.13-0.84,1.862-0.856c0.882-0.021,1.763-0.037,2.642,0.003
				c0.913,0.04,1.54,0.556,1.875,1.378c0.329,0.816,0.183,1.6-0.378,2.275c-0.425,0.512-0.959,0.807-1.661,0.758
				c-0.397-0.031-0.798,0.009-1.195-0.014c-0.36-0.019-0.621,0.114-0.869,0.366c-2.12,2.129-4.252,4.242-6.375,6.371
				c-0.593,0.598-1.275,0.927-2.139,0.89c-0.655-0.028-1.312-0.037-1.971,0.003c-1.229,0.064-2.064-0.762-2.325-1.835
				c-0.019-0.077-0.05-0.152-0.078-0.229C103.616,481.991,103.616,481.853,103.616,481.712z M107.067,483.054
				c0.289,0,0.587-0.016,0.875,0.002c0.59,0.037,1.049-0.167,1.471-0.596c2.136-2.163,4.299-4.299,6.438-6.459
				c0.391-0.395,0.822-0.59,1.375-0.564c0.435,0.021,0.869,0.01,1.304,0.007c0.636-0.011,1.077-0.457,1.086-1.091
				c0.006-0.438-0.425-1.092-1.09-1.061c-0.763,0.037-1.527,0.021-2.288,0.002c-0.49-0.009-0.869,0.156-1.22,0.51
				c-2.204,2.224-4.426,4.433-6.636,6.651c-0.313,0.312-0.667,0.466-1.099,0.462c-0.469-0.006-0.938-0.006-1.409,0
				c-0.671,0.004-1.071,0.37-1.081,0.981c-0.009,0.646,0.438,1.133,1.074,1.15C106.266,483.062,106.667,483.054,107.067,483.054z"/>
			<path d="M109.752,472.097c-0.006-0.624,0.534-1.177,1.151-1.18c0.612-0.003,1.155,0.553,1.152,1.176
				c0,0.625-0.509,1.141-1.133,1.152C110.292,473.257,109.755,472.733,109.752,472.097z"/>
		</g>
	</g>
	<g>
		<path fill="#FFFFFF" d="M202.751,470.955c0,2.12,1.717,3.836,3.836,3.836h15.209c2.12,0,3.839-1.716,3.839-3.836v-12.03
			c0-2.118-1.719-3.838-3.839-3.838h-15.209c-2.12,0-3.836,1.72-3.836,3.838V470.955z"/>
		<g>
			<path d="M205.61,469.096c0.093-0.251,0.167-0.512,0.286-0.751c0.385-0.788,1.03-1.188,1.906-1.21c0.049,0,0.096-0.007,0.143,0
				c1.08,0.187,1.94-0.158,2.57-1.062c0.053-0.077,0.13-0.133,0.196-0.201c0.338-0.342,0.813-0.631,0.978-1.043
				c0.174-0.438,0.053-0.993,0.059-1.496c0.003-0.459-0.009-0.916,0.003-1.371c0.016-0.74,0.487-1.193,1.198-1.18
				c0.661,0.016,1.083,0.479,1.086,1.207c0.003,0.17,0.003,0.344,0.003,0.623c0.37-0.375,0.67-0.681,0.972-0.983
				c0.407-0.407,0.829-0.798,1.213-1.223c0.506-0.557,1.13-0.839,1.862-0.856c0.882-0.021,1.763-0.037,2.642,0.003
				c0.913,0.04,1.54,0.557,1.875,1.378c0.329,0.816,0.183,1.6-0.378,2.275c-0.425,0.512-0.959,0.807-1.661,0.758
				c-0.397-0.031-0.798,0.009-1.195-0.014c-0.36-0.019-0.621,0.115-0.869,0.367c-2.12,2.129-4.252,4.241-6.375,6.37
				c-0.593,0.598-1.275,0.927-2.139,0.89c-0.655-0.028-1.312-0.037-1.971,0.003c-1.229,0.064-2.064-0.761-2.325-1.835
				c-0.019-0.077-0.05-0.152-0.078-0.229C205.61,469.375,205.61,469.236,205.61,469.096z M209.062,470.438
				c0.289,0,0.587-0.016,0.875,0.003c0.59,0.036,1.049-0.167,1.471-0.597c2.136-2.163,4.299-4.299,6.438-6.459
				c0.391-0.395,0.822-0.59,1.375-0.563c0.435,0.021,0.869,0.009,1.304,0.006c0.636-0.01,1.077-0.457,1.086-1.09
				c0.006-0.438-0.425-1.093-1.09-1.062c-0.763,0.037-1.527,0.021-2.288,0.002c-0.49-0.009-0.869,0.156-1.22,0.511
				c-2.204,2.223-4.426,4.432-6.636,6.65c-0.313,0.313-0.667,0.466-1.099,0.462c-0.469-0.006-0.938-0.006-1.409,0
				c-0.671,0.004-1.071,0.37-1.081,0.981c-0.009,0.646,0.438,1.133,1.074,1.15C208.261,470.446,208.661,470.438,209.062,470.438z"/>
			<path d="M211.747,459.48c-0.006-0.624,0.534-1.178,1.151-1.181c0.612-0.003,1.155,0.554,1.152,1.176
				c0,0.625-0.509,1.141-1.133,1.152C212.287,460.641,211.75,460.117,211.747,459.48z"/>
		</g>
	</g>
	<g>
		<path fill="#FFFFFF" d="M202.807,544.532c0,2.12,1.717,3.836,3.836,3.836h15.209c2.12,0,3.839-1.716,3.839-3.836v-12.03
			c0-2.118-1.719-3.838-3.839-3.838h-15.209c-2.12,0-3.836,1.72-3.836,3.838V544.532z"/>
		<g>
			<path d="M205.666,542.673c0.093-0.251,0.167-0.512,0.286-0.751c0.385-0.788,1.03-1.188,1.906-1.21c0.049,0,0.096-0.007,0.143,0
				c1.08,0.187,1.94-0.158,2.57-1.062c0.053-0.077,0.13-0.134,0.196-0.201c0.338-0.342,0.813-0.631,0.978-1.043
				c0.174-0.438,0.053-0.993,0.059-1.496c0.003-0.459-0.009-0.916,0.003-1.371c0.016-0.74,0.487-1.193,1.198-1.18
				c0.661,0.016,1.083,0.479,1.086,1.207c0.003,0.17,0.003,0.344,0.003,0.623c0.37-0.375,0.67-0.681,0.972-0.983
				c0.407-0.407,0.829-0.798,1.213-1.223c0.506-0.557,1.13-0.84,1.862-0.856c0.882-0.021,1.763-0.037,2.642,0.003
				c0.913,0.04,1.54,0.556,1.875,1.378c0.329,0.816,0.183,1.6-0.378,2.275c-0.425,0.512-0.959,0.807-1.661,0.758
				c-0.397-0.031-0.798,0.009-1.195-0.014c-0.36-0.019-0.621,0.114-0.869,0.366c-2.12,2.13-4.252,4.242-6.375,6.371
				c-0.593,0.598-1.275,0.927-2.139,0.89c-0.655-0.028-1.312-0.037-1.971,0.003c-1.229,0.064-2.064-0.762-2.325-1.835
				c-0.019-0.077-0.05-0.152-0.078-0.229C205.666,542.952,205.666,542.812,205.666,542.673z M209.117,544.015
				c0.289,0,0.587-0.016,0.875,0.002c0.59,0.037,1.049-0.167,1.471-0.596c2.136-2.163,4.299-4.299,6.438-6.459
				c0.391-0.395,0.822-0.59,1.375-0.563c0.435,0.021,0.869,0.009,1.304,0.006c0.636-0.011,1.077-0.457,1.086-1.09
				c0.006-0.438-0.425-1.093-1.09-1.062c-0.763,0.037-1.527,0.021-2.288,0.002c-0.49-0.009-0.869,0.156-1.22,0.51
				c-2.204,2.224-4.426,4.433-6.636,6.651c-0.313,0.312-0.667,0.466-1.099,0.462c-0.469-0.006-0.938-0.006-1.409,0
				c-0.671,0.004-1.071,0.37-1.081,0.981c-0.009,0.646,0.438,1.133,1.074,1.15C208.316,544.023,208.716,544.015,209.117,544.015z"/>
			<path d="M211.802,533.058c-0.006-0.624,0.534-1.177,1.151-1.18c0.612-0.003,1.155,0.553,1.152,1.176
				c0,0.625-0.509,1.141-1.133,1.152C212.342,534.218,211.805,533.694,211.802,533.058z"/>
		</g>
	</g>
	<g>
		<path fill="#FFFFFF" d="M250.194,619.863c0,2.12,1.717,3.836,3.836,3.836h15.209c2.12,0,3.839-1.716,3.839-3.836v-12.03
			c0-2.118-1.719-3.838-3.839-3.838H254.03c-2.12,0-3.836,1.72-3.836,3.838V619.863z"/>
		<g>
			<path d="M253.053,618.004c0.093-0.251,0.167-0.512,0.286-0.751c0.385-0.788,1.03-1.188,1.906-1.21c0.049,0,0.096-0.007,0.143,0
				c1.08,0.186,1.939-0.158,2.57-1.062c0.053-0.077,0.13-0.134,0.195-0.201c0.338-0.342,0.812-0.631,0.978-1.043
				c0.174-0.438,0.053-0.993,0.06-1.496c0.002-0.459-0.01-0.916,0.002-1.371c0.016-0.74,0.488-1.193,1.199-1.18
				c0.66,0.016,1.083,0.479,1.086,1.207c0.003,0.17,0.003,0.344,0.003,0.622c0.37-0.375,0.671-0.68,0.972-0.982
				c0.406-0.407,0.828-0.798,1.213-1.223c0.507-0.557,1.131-0.84,1.863-0.856c0.881-0.021,1.763-0.037,2.641,0.003
				c0.913,0.04,1.54,0.556,1.875,1.378c0.329,0.816,0.184,1.599-0.379,2.275c-0.425,0.512-0.959,0.807-1.66,0.758
				c-0.397-0.031-0.798,0.009-1.195-0.014c-0.359-0.019-0.621,0.114-0.869,0.366c-2.119,2.13-4.252,4.242-6.375,6.371
				c-0.593,0.598-1.275,0.927-2.139,0.89c-0.654-0.028-1.312-0.037-1.971,0.003c-1.229,0.064-2.064-0.762-2.325-1.835
				c-0.019-0.077-0.05-0.152-0.078-0.229C253.053,618.283,253.053,618.145,253.053,618.004z M256.504,619.346
				c0.289,0,0.587-0.016,0.875,0.002c0.59,0.037,1.05-0.167,1.472-0.596c2.136-2.163,4.299-4.299,6.438-6.459
				c0.392-0.395,0.822-0.59,1.375-0.564c0.435,0.021,0.869,0.01,1.304,0.007c0.637-0.011,1.077-0.457,1.086-1.091
				c0.006-0.438-0.425-1.092-1.09-1.061c-0.763,0.037-1.526,0.021-2.287,0.002c-0.49-0.009-0.869,0.156-1.22,0.51
				c-2.204,2.224-4.426,4.433-6.636,6.651c-0.313,0.312-0.668,0.466-1.099,0.462c-0.469-0.006-0.938-0.006-1.409,0
				c-0.671,0.004-1.071,0.37-1.081,0.981c-0.009,0.646,0.438,1.133,1.074,1.15C255.703,619.354,256.104,619.346,256.504,619.346z"/>
			<path d="M259.189,608.389c-0.007-0.624,0.533-1.177,1.15-1.18c0.612-0.003,1.155,0.553,1.152,1.176
				c0,0.625-0.51,1.141-1.133,1.152C259.729,609.549,259.191,609.025,259.189,608.389z"/>
		</g>
	</g>
	<g>
		<path fill="#FFFFFF" d="M202.103,252.171c0,2.12,1.717,3.836,3.836,3.836h15.209c2.12,0,3.839-1.716,3.839-3.836v-12.03
			c0-2.118-1.719-3.838-3.839-3.838h-15.209c-2.12,0-3.836,1.72-3.836,3.838V252.171z"/>
		<g>
			<path d="M204.961,250.312c0.093-0.251,0.167-0.512,0.286-0.751c0.385-0.788,1.03-1.188,1.906-1.21c0.049,0,0.096-0.007,0.143,0
				c1.08,0.186,1.94-0.158,2.57-1.062c0.053-0.077,0.13-0.133,0.196-0.201c0.338-0.342,0.813-0.631,0.978-1.043
				c0.174-0.438,0.053-0.993,0.059-1.496c0.003-0.459-0.009-0.916,0.003-1.371c0.016-0.74,0.487-1.193,1.198-1.18
				c0.661,0.016,1.083,0.48,1.086,1.207c0.003,0.17,0.003,0.344,0.003,0.623c0.37-0.375,0.67-0.68,0.972-0.983
				c0.407-0.407,0.829-0.798,1.213-1.223c0.506-0.556,1.13-0.839,1.862-0.856c0.882-0.021,1.763-0.037,2.642,0.003
				c0.913,0.04,1.54,0.556,1.875,1.378c0.329,0.816,0.183,1.599-0.378,2.275c-0.425,0.512-0.959,0.807-1.661,0.758
				c-0.397-0.031-0.798,0.009-1.195-0.014c-0.36-0.018-0.621,0.115-0.869,0.367c-2.12,2.129-4.252,4.242-6.375,6.371
				c-0.593,0.597-1.275,0.926-2.139,0.889c-0.655-0.028-1.312-0.037-1.971,0.003c-1.229,0.065-2.064-0.761-2.325-1.835
				c-0.019-0.077-0.05-0.152-0.078-0.229C204.961,250.591,204.961,250.453,204.961,250.312z M208.413,251.654
				c0.289,0,0.587-0.016,0.875,0.002c0.59,0.037,1.049-0.167,1.471-0.596c2.136-2.163,4.299-4.299,6.438-6.459
				c0.391-0.395,0.822-0.59,1.375-0.564c0.435,0.021,0.869,0.009,1.304,0.006c0.636-0.01,1.077-0.457,1.086-1.09
				c0.006-0.438-0.425-1.092-1.09-1.061c-0.763,0.037-1.527,0.021-2.288,0.002c-0.49-0.009-0.869,0.156-1.22,0.51
				c-2.204,2.223-4.426,4.432-6.636,6.651c-0.313,0.313-0.667,0.466-1.099,0.462c-0.469-0.006-0.938-0.006-1.409,0
				c-0.671,0.004-1.071,0.37-1.081,0.981c-0.009,0.646,0.438,1.133,1.074,1.151C207.612,251.663,208.012,251.654,208.413,251.654z"
				/>
			<path d="M211.098,240.697c-0.006-0.624,0.534-1.177,1.151-1.18c0.612-0.003,1.155,0.553,1.152,1.176
				c0,0.625-0.509,1.14-1.133,1.152C211.638,241.857,211.101,241.333,211.098,240.697z"/>
		</g>
	</g>
	<circle fill="#FFFFFF" stroke="#D19151" stroke-miterlimit="10" cx="169.412" cy="78.208" r="6.658"/>
	<circle fill="#FFFFFF" stroke="#D19151" stroke-miterlimit="10" cx="267.894" cy="54.644" r="6.658"/>
	<circle fill="#FFFFFF" stroke="#50784A" stroke-miterlimit="10" cx="306.95" cy="270.458" r="6.658"/>
	<circle fill="#FFFFFF" stroke="#50784A" stroke-miterlimit="10" cx="249.219" cy="278.146" r="6.658"/>
	<circle fill="#FFFFFF" stroke="#50784A" stroke-miterlimit="10" cx="195.224" cy="291.463" r="6.658"/>
	<circle fill="#FFFFFF" stroke="#50784A" stroke-miterlimit="10" cx="143.138" cy="306.61" r="6.658"/>
	<circle fill="#FFFFFF" stroke="#407298" stroke-miterlimit="10" cx="401.796" cy="321.894" r="6.658"/>
	<circle fill="#FFFFFF" stroke="#407298" stroke-miterlimit="10" cx="377.63" cy="350.394" r="6.658"/>
	<circle fill="#FFFFFF" stroke="#407298" stroke-miterlimit="10" cx="344.655" cy="374.78" r="6.658"/>
	<circle fill="#FFFFFF" stroke="#407298" stroke-miterlimit="10" cx="306.95" cy="397.28" r="6.658"/>
</g>
<g id="Text">
	<text transform="matrix(1 0 0 1 274.5522 655.1592)" font-family="'GillSans-Light'" font-size="13">PORTE MAILLOT</text>
	<rect x="216.611" y="206.477" fill="none" width="74.724" height="18.5"/>
	<text transform="matrix(1 0 0 1 216.6113 215.3438)" font-family="'GillSans-Light'" font-size="13">BORDEAUX</text>
	<rect x="145.215" y="420.402" fill="none" width="57.447" height="14.812"/>
	<text transform="matrix(1 0 0 1 150.7832 429.2686)" font-family="'GillSans-Light'" font-size="13">MAILLOT</text>
	<rect x="262.586" y="424.402" fill="none" width="75.411" height="14.812"/>
	
		<text transform="matrix(1 0 0 1 262.5864 431.2217)" opacity="0.2" enable-background="new    " font-family="'GillSans-Light'" font-size="10">MEZZANINE</text>
	<rect x="62.697" y="555.476" fill="none" width="99.595" height="25.023"/>
	<text transform="matrix(1 0 0 1 117.1733 564.3408)" font-family="'GillSans-Light'" font-size="13">GRAND </text>
	<text transform="matrix(1 0 0 1 71.6675 579.9414)" font-family="'GillSans-Light'" font-size="13">AMPHITHÉÂTRE</text>
	<rect x="272.552" y="573.244" fill="none" width="113.035" height="12.947"/>
	<text transform="matrix(1 0 0 1 272.5522 582.1104)" font-family="'GillSans-Light'" font-size="13">REGISTRATION</text>
	<rect x="403.909" y="279.701" fill="none" width="67" height="18.5"/>
	<text transform="matrix(1 0 0 1 403.9092 288.5664)" font-family="'GillSans-Light'" font-size="13">BLEU</text>
	<rect x="139.965" y="136.851" fill="none" width="67" height="18.5"/>
	<text transform="matrix(1 0 0 1 139.9653 145.7168)" font-family="'GillSans-Light'" font-size="13">HAVANE</text>
	<rect x="145.569" y="60.061" fill="none" width="28.37" height="9.25"/>
	<text transform="matrix(1 0 0 1 145.5688 68.9258)" font-family="'GillSans-Light'" font-size="13">351</text>
	<rect x="245.738" y="34.06" fill="none" width="22.092" height="9.25"/>
	<text transform="matrix(1 0 0 1 245.7383 42.9258)" font-family="'GillSans-Light'" font-size="13">352</text>
	<rect x="414.164" y="82.32" fill="none" width="67" height="18.5"/>
	<text transform="matrix(1 0 0 1 414.1641 91.1855)" font-family="'GillSans-Light'" font-size="13">362</text>
	<rect x="395.576" y="117.19" fill="none" width="67" height="18.5"/>
	<text transform="matrix(1 0 0 1 395.5762 126.0566)" font-family="'GillSans-Light'" font-size="13">361</text>
	<rect x="364.433" y="145.511" fill="none" width="67" height="18.5"/>
	<text transform="matrix(1 0 0 1 364.4326 154.377)" font-family="'GillSans-Light'" font-size="13">343</text>
	<rect x="315.864" y="174.144" fill="none" width="67" height="18.5"/>
	<text transform="matrix(1 0 0 1 315.8643 183.0098)" font-family="'GillSans-Light'" font-size="13">342 A</text>
	<rect x="129.266" y="285.521" fill="none" width="21.4" height="11.885"/>
	<text transform="matrix(1 0 0 1 129.2656 294.3857)" font-family="'GillSans-Light'" font-size="13">251</text>
	<rect x="221.802" y="259.711" fill="none" width="41.517" height="14.024"/>
	<text transform="matrix(1 0 0 1 221.8022 268.5762)" font-family="'GillSans-Light'" font-size="13">252 B</text>
	<rect x="169.412" y="272.689" fill="none" width="41.517" height="14.024"/>
	<text transform="matrix(1 0 0 1 169.4121 281.5547)" font-family="'GillSans-Light'" font-size="13">252 A</text>
	<rect x="283.238" y="252.698" fill="none" width="28.799" height="14.025"/>
	<text transform="matrix(1 0 0 1 283.2378 261.5645)" font-family="'GillSans-Light'" font-size="13">253</text>
	<rect x="412.679" y="320.803" fill="none" width="37.509" height="14.025"/>
	<text transform="matrix(1 0 0 1 412.6787 329.668)" font-family="'GillSans-Light'" font-size="13">243</text>
	<rect x="353.168" y="374.426" fill="none" width="32.748" height="14.025"/>
	<text transform="matrix(1 0 0 1 353.168 383.292)" font-family="'GillSans-Light'" font-size="13">242 A</text>
	<rect x="387.39" y="351.184" fill="none" width="36.132" height="14.025"/>
	<text transform="matrix(1 0 0 1 387.3887 360.0498)" font-family="'GillSans-Light'" font-size="13">242 B</text>
	<rect x="318.864" y="395.948" fill="none" width="28.799" height="14.024"/>
	<text transform="matrix(1 0 0 1 318.8643 404.8135)" font-family="'GillSans-Light'" font-size="13">241</text>
</g>
<g id="LEVEL_3LEVEL_2LEVEL_1LEVEL_0" display="none">
	<text transform="matrix(1 0 0 1 459.4092 586.8145)" display="inline" font-family="'GillSans'" font-size="14">LEVEL 0</text>
	
		<text transform="matrix(1 0 0 1 459.4092 521.5684)" display="inline" opacity="0.2" enable-background="new    " font-family="'GillSans'" font-size="14">LEVEL 1</text>
	<text transform="matrix(1 0 0 1 459.4092 452.4131)" display="inline" font-family="'GillSans'" font-size="14">LEVEL 2</text>
	<text transform="matrix(1 0 0 1 465.7412 213.2061)" display="inline" font-family="'GillSans'" font-size="14">LEVEL 3</text>
</g>
<g id="Layer_4">
	
		<text transform="matrix(1 0 0 1 437.4092 583.8301)" opacity="0.3" enable-background="new    " font-family="'GillSans-Light'" font-size="25">LEVEL  0</text>
	
		<text transform="matrix(1 0 0 1 437.4092 503.0537)" opacity="0.3" enable-background="new    " font-family="'GillSans-Light'" font-size="25">LEVEL  1</text>
	
		<text transform="matrix(1 0 0 1 437.4092 656.8975)" opacity="0.3" enable-background="new    " font-family="'GillSans-Light'" font-size="25">LEVEL -1</text>
	
		<text transform="matrix(1 0 0 1 437.4092 259.7109)" opacity="0.3" enable-background="new    " font-family="'GillSans-Light'" font-size="25">LEVEL  2</text>
	
		<text transform="matrix(1 0 0 1 437.4092 61.3018)" opacity="0.3" enable-background="new    " font-family="'GillSans-Light'" font-size="25">LEVEL 3</text>
</g>
</svg>
