<?xml version="1.0" encoding="utf-8"?>
<!-- Generator: Adobe Illustrator 16.0.0, SVG Export Plug-In . SVG Version: 6.00 Build 0)  -->
<!DOCTYPE svg PUBLIC "-//W3C//DTD SVG 1.1//EN" "http://www.w3.org/Graphics/SVG/1.1/DTD/svg11.dtd">
<svg version="1.1" id="Layer_1" xmlns="http://www.w3.org/2000/svg" xmlns:xlink="http://www.w3.org/1999/xlink" x="0px" y="0px"
	 width="1960.677px" height="1443.705px" viewBox="0 0 1960.677 1443.705" enable-background="new 0 0 1960.677 1443.705"
	 xml:space="preserve">
<line fill="none" stroke="#000000" stroke-width="4" stroke-miterlimit="10" x1="294.243" y1="176.815" x2="294.243" y2="1336.271"/>
<line fill="none" stroke="#000000" stroke-width="4" stroke-miterlimit="10" x1="675.716" y1="176.815" x2="675.716" y2="1336.271"/>
<line fill="none" stroke="#000000" stroke-width="4" stroke-miterlimit="10" x1="1057.189" y1="176.815" x2="1057.189" y2="1336.271"/>
<line fill="none" stroke="#000000" stroke-width="4" stroke-miterlimit="10" x1="1438.662" y1="176.815" x2="1438.662" y2="1336.271"/>
<line fill="none" stroke="#000000" stroke-width="4" stroke-miterlimit="10" x1="1820.136" y1="176.815" x2="1820.136" y2="1336.271"/>
<line fill="none" stroke="#000000" stroke-width="4" stroke-miterlimit="10" x1="294.243" y1="176.815" x2="1820.136" y2="176.815"/>
<line fill="none" stroke="#000000" stroke-width="4" stroke-miterlimit="10" x1="294.243" y1="756.543" x2="1820.136" y2="756.543"/>
<line fill="none" stroke="#000000" stroke-width="4" stroke-miterlimit="10" x1="294.243" y1="466.679" x2="1820.136" y2="466.679"/>
<line fill="none" stroke="#000000" stroke-width="4" stroke-miterlimit="10" x1="294.243" y1="1336.271" x2="1820.136" y2="1336.271"/>
<line fill="none" stroke="#000000" stroke-width="4" stroke-miterlimit="10" x1="294.243" y1="1046.408" x2="1820.136" y2="1046.408"/>
<rect x="374.19" y="82.22" fill="none" width="437.837" height="162.163"/>
<text transform="matrix(1 0 0 1 374.1899 153.6191)" font-family="'HelveticaNeue-Bold'" font-size="100">MON</text>
<rect x="212.028" y="-9.672" fill="none" width="162.162" height="437.838"/>
<text transform="matrix(4.489659e-11 -1 1 4.489659e-11 276.2866 428.165)" font-family="'HelveticaNeue-Bold'" font-size="90">9:00</text>
<rect x="212.028" y="304.815" fill="none" width="162.162" height="437.839"/>
<text transform="matrix(4.489659e-11 -1 1 4.489659e-11 276.2866 742.6533)" font-family="'HelveticaNeue-Bold'" font-size="90">11:00</text>
<rect x="212.028" y="596.814" fill="none" width="162.162" height="437.84"/>
<text transform="matrix(4.489659e-11 -1 1 4.489659e-11 276.2866 1034.6533)" font-family="'HelveticaNeue-Bold'" font-size="90">14:00</text>
<rect x="212.028" y="884.787" fill="none" width="162.162" height="437.84"/>
<text transform="matrix(4.489659e-11 -1 1 4.489659e-11 276.2866 1322.624)" font-family="'HelveticaNeue-Bold'" font-size="90">16:00</text>
<rect x="730.947" y="82.22" fill="none" width="437.837" height="162.163"/>
<text transform="matrix(1 0 0 1 730.9468 153.6191)" font-family="'HelveticaNeue-Bold'" font-size="100">TUE</text>
<rect x="1136.352" y="82.22" fill="none" width="437.837" height="162.163"/>
<text transform="matrix(1 0 0 1 1136.3521 153.6191)" font-family="'HelveticaNeue-Bold'" font-size="100">WED</text>
<rect x="1522.839" y="82.22" fill="none" width="437.838" height="162.163"/>
<text transform="matrix(1 0 0 1 1522.8398 153.6191)" font-family="'HelveticaNeue-Bold'" font-size="100">THU</text>
</svg>
