<?xml version="1.0" encoding="utf-8"?>
<!-- Generator: Adobe Illustrator 16.0.0, SVG Export Plug-In . SVG Version: 6.00 Build 0)  -->
<!DOCTYPE svg PUBLIC "-//W3C//DTD SVG 1.1//EN" "http://www.w3.org/Graphics/SVG/1.1/DTD/svg11.dtd">
<svg version="1.1" id="Layer_1" xmlns="http://www.w3.org/2000/svg" xmlns:xlink="http://www.w3.org/1999/xlink" x="0px" y="0px"
	 width="1772.882px" height="980px" viewBox="0 0 1772.882 980" enable-background="new 0 0 1772.882 980" xml:space="preserve">
<text class="hejhejhejhejhej" transform="matrix(1.2296 0 0 1 61.6475 307.3491)" fill="#030303" font-family="'GillSans-Light'" font-size="32.8967">16:00 - 17:20</text>
<text transform="matrix(1.2296 0 0 1 63.3188 260.4683)" fill="#030303" font-family="'GillSans-Light'" font-size="32.8967">14:00 - 15:20</text>
<text transform="matrix(1.2296 0 0 1 61.6841 210.6968)" fill="#030303" font-family="'GillSans-Light'" font-size="32.8967">11:00 - 12:20</text>
<text transform="matrix(1.2296 0 0 1 85.1704 162.7251)" fill="#030303" font-family="'GillSans-Light'" font-size="32.8967">9:00 - 10:20</text>
<text transform="matrix(1.2296 0 0 1 61.6475 522.1797)" fill="#030303" font-family="'GillSans-Light'" font-size="32.8967">16:00 - 17:20</text>
<text transform="matrix(1.2296 0 0 1 63.3188 475.2954)" fill="#030303" font-family="'GillSans-Light'" font-size="32.8967">14:00 - 15:20</text>
<text transform="matrix(1.2296 0 0 1 61.6841 425.5249)" fill="#030303" font-family="'GillSans-Light'" font-size="32.8967">11:00 - 12:20</text>
<text transform="matrix(1.2296 0 0 1 85.1704 377.5552)" fill="#030303" font-family="'GillSans-Light'" font-size="32.8967">9:00 - 10:20</text>
<text transform="matrix(1.2296 0 0 1 61.6475 741.3525)" fill="#030303" font-family="'GillSans-Light'" font-size="32.8967">16:00 - 17:20</text>
<text transform="matrix(1.2296 0 0 1 63.3188 694.4707)" fill="#030303" font-family="'GillSans-Light'" font-size="32.8967">14:00 - 15:20</text>
<text transform="matrix(1.2296 0 0 1 61.6841 644.6953)" fill="#030303" font-family="'GillSans-Light'" font-size="32.8967">11:00 - 12:20</text>
<text transform="matrix(1.2296 0 0 1 85.1704 596.7285)" fill="#030303" font-family="'GillSans-Light'" font-size="32.8967">9:00 - 10:20</text>
<text transform="matrix(1.2296 0 0 1 61.6475 957.834)" fill="#030303" font-family="'GillSans-Light'" font-size="32.8967">16:00 - 17:20</text>
<text transform="matrix(1.2296 0 0 1 63.3188 910.9521)" fill="#030303" font-family="'GillSans-Light'" font-size="32.8967">14:00 - 15:20</text>
<text transform="matrix(1.2296 0 0 1 61.6841 861.1816)" fill="#030303" font-family="'GillSans-Light'" font-size="32.8967">11:00 - 12:20</text>
<text transform="matrix(1.2296 0 0 1 85.1704 813.21)" fill="#030303" font-family="'GillSans-Light'" font-size="32.8967">9:00 - 10:20</text>
<text transform="matrix(0.9999 0 0 1 291.8276 101.6499)" fill="#3F6989" font-family="'GillSans-Light'" font-size="32.8967">Bleu</text>
<text transform="matrix(0.9999 0 0 1 382.2407 101.6499)" fill="#3F6989" font-family="'GillSans-Light'" font-size="32.8967">241</text>
<text transform="matrix(0.9999 0 0 1 463.0029 101.6499)" fill="#3F6989" font-family="'GillSans-Light'" font-size="32.8967">242AB</text>
<text transform="matrix(0.9999 0 0 1 581.0249 101.6499)" fill="#3F6989" font-family="'GillSans-Light'" font-size="32.8967">243</text>
<text transform="matrix(0.9999 0 0 1 656.4185 101.2515)" fill="#4A7046" font-family="'GillSans-Light'" font-size="32.8967">251</text>
<text transform="matrix(0.9999 0 0 1 720.5503 101.2515)" fill="#4A7046" font-family="'GillSans-Light'" font-size="32.8967">252A</text>
<text transform="matrix(0.9999 0 0 1 809.9268 101.2515)" fill="#4A7046" font-family="'GillSans-Light'" font-size="32.8967">252B</text>
<text transform="matrix(0.9999 0 0 1 888.748 101.2515)" fill="#4A7046" font-family="'GillSans-Light'" font-size="32.8967"> 253</text>
<text transform="matrix(0.9999 0 0 1 972.8096 100.1519)" fill="#934A50" font-family="'GillSans-Light'" font-size="32.8967">Bordeaux</text>
<text transform="matrix(0.9999 0 0 1 1112.9854 101.1519)" fill="#934A50" font-family="'GillSans-Light'" font-size="32.8967">342A</text>
<text transform="matrix(0.9999 0 0 1 1201.3115 101.1519)" fill="#934A50" font-family="'GillSans-Light'" font-size="32.8967">343</text>
<text transform="matrix(0.9999 0 0 1 1264.6328 101.6499)" fill="#934A50" font-family="'GillSans-Light'" font-size="32.8967">361</text>
<text transform="matrix(0.9999 0 0 1 1323.9551 101.6499)" fill="#934A50" font-family="'GillSans-Light'" font-size="32.8967">362</text>
<text transform="matrix(0.9999 0 0 1 1394.9209 100.4536)" fill="#C68952" font-family="'GillSans-Light'" font-size="32.8967">Havane</text>
<text transform="matrix(0.9999 0 0 1 1510.0869 100.4536)" fill="#C68952" font-family="'GillSans-Light'" font-size="32.8967">351</text>
<text transform="matrix(0.9999 0 0 1 1578.8838 100.4536)" fill="#C68952" font-family="'GillSans-Light'" font-size="32.8967">352</text>
<text transform="matrix(0.9999 0 0 1 1653.8887 99.7173)" fill="#EBD74E" font-family="'GillSans-Light'" font-size="32.8967">Grand</text>
<text transform="matrix(8.183381e-16 -1.0001 1 -1.066992e-15 47.46 287.3174)" fill="#030303" font-family="'GillSans-Light'" font-size="40.202">Monday</text>
<text transform="matrix(0 -1.0001 1 0 47.8198 511.668)" fill="#030303" font-family="'GillSans-Light'" font-size="40.202">Tuesday</text>
<text transform="matrix(1.118932e-15 -1.0001 1 2.133984e-15 46.2573 759.8828)" fill="#030303" font-family="'GillSans-Light'" font-size="40.202">Wednesday</text>
<text transform="matrix(-5.379963e-16 -1.0001 1 0 46.812 956.5371)" fill="#030303" font-family="'GillSans-Light'" font-size="40.202">Thursday</text>
<g id="Bleu">
	<g>
		<rect x="290.175" y="112.242" fill="#3F6989" width="342.939" height="860.84"/>
	</g>
</g>
<g id="Green">
	<g>
		<rect x="652.73" y="112.242" fill="#4A7046" width="291.586" height="860.84"/>
	</g>
</g>
<g id="Bordeaux">
	<g>
		<rect x="967.209" y="112.242" fill="#934A50" width="407.597" height="860.84"/>
	</g>
</g>
<g id="Bordeaux_copia">
	<g>
		<rect x="1391.462" y="112.242" fill="#C68952" width="239.18" height="860.84"/>
	</g>
</g>
<g id="Bordeaux_copia_2">
	<g>
		<rect x="1645.264" y="112.242" fill="#EBD74E" width="98.533" height="860.84"/>
	</g>
</g>
<text transform="matrix(0.9999 0 0 1 853.8589 40.5142)" fill="#030303" font-family="'GillSans-Light'" font-size="40.2071">SCHEDULE</text>
</svg>
