<?xml version="1.0" encoding="utf-8"?>
<!-- Generator: Adobe Illustrator 16.0.0, SVG Export Plug-In . SVG Version: 6.00 Build 0)  -->
<!DOCTYPE svg PUBLIC "-//W3C//DTD SVG 1.1//EN" "http://www.w3.org/Graphics/SVG/1.1/DTD/svg11.dtd">
<svg version="1.1" id="Layer_1" xmlns="http://www.w3.org/2000/svg" xmlns:xlink="http://www.w3.org/1999/xlink" x="0px" y="0px"
	 width="1742px" height="980px" viewBox="0 0 1742 980" enable-background="new 0 0 1742 980" xml:space="preserve">
<text transform="matrix(1.2296 0 0 1 59.8506 307.3491)" fill="#030303" font-family="'GillSans-Light'" font-size="32.8967">16:00 - 17:20</text>
<text transform="matrix(1.2296 0 0 1 61.522 260.4683)" fill="#030303" font-family="'GillSans-Light'" font-size="32.8967">14:00 - 15:20</text>
<text transform="matrix(1.2296 0 0 1 59.8872 210.6968)" fill="#030303" font-family="'GillSans-Light'" font-size="32.8967">11:00 - 12:20</text>
<text transform="matrix(1.2296 0 0 1 83.3735 162.7251)" fill="#030303" font-family="'GillSans-Light'" font-size="32.8967">9:00 - 10:20</text>
<text transform="matrix(1.2296 0 0 1 59.8506 522.1797)" fill="#030303" font-family="'GillSans-Light'" font-size="32.8967">16:00 - 17:20</text>
<text transform="matrix(1.2296 0 0 1 61.522 475.2954)" fill="#030303" font-family="'GillSans-Light'" font-size="32.8967">14:00 - 15:20</text>
<text transform="matrix(1.2296 0 0 1 59.8872 425.5249)" fill="#030303" font-family="'GillSans-Light'" font-size="32.8967">11:00 - 12:20</text>
<text transform="matrix(1.2296 0 0 1 83.3735 377.5552)" fill="#030303" font-family="'GillSans-Light'" font-size="32.8967">9:00 - 10:20</text>
<text transform="matrix(1.2296 0 0 1 59.8506 741.3525)" fill="#030303" font-family="'GillSans-Light'" font-size="32.8967">16:00 - 17:20</text>
<text transform="matrix(1.2296 0 0 1 61.522 694.4707)" fill="#030303" font-family="'GillSans-Light'" font-size="32.8967">14:00 - 15:20</text>
<text transform="matrix(1.2296 0 0 1 59.8872 644.6953)" fill="#030303" font-family="'GillSans-Light'" font-size="32.8967">11:00 - 12:20</text>
<text transform="matrix(1.2296 0 0 1 83.3735 596.7285)" fill="#030303" font-family="'GillSans-Light'" font-size="32.8967">9:00 - 10:20</text>
<text transform="matrix(1.2296 0 0 1 59.8506 957.834)" fill="#030303" font-family="'GillSans-Light'" font-size="32.8967">16:00 - 17:20</text>
<text transform="matrix(1.2296 0 0 1 61.522 910.9521)" fill="#030303" font-family="'GillSans-Light'" font-size="32.8967">14:00 - 15:20</text>
<text transform="matrix(1.2296 0 0 1 59.8872 861.1816)" fill="#030303" font-family="'GillSans-Light'" font-size="32.8967">11:00 - 12:20</text>
<text transform="matrix(1.2296 0 0 1 83.3735 813.21)" fill="#030303" font-family="'GillSans-Light'" font-size="32.8967">9:00 - 10:20</text>
<text transform="matrix(0.9999 0 0 1 290.0308 101.6499)" fill="#3F6989" font-family="'GillSans-Light'" font-size="32.8967">Bleu</text>
<text transform="matrix(0.9999 0 0 1 383.8745 101.6499)" fill="#3F6989" font-family="'GillSans-Light'" font-size="32.8967">241 </text>
<text transform="matrix(0.9999 0 0 1 465.2061 101.6499)" fill="#3F6989" font-family="'GillSans-Light'" font-size="32.8967">242AB</text>
<text transform="matrix(0.9999 0 0 1 579.228 101.6499)" fill="#3F6989" font-family="'GillSans-Light'" font-size="32.8967">243</text>
<text transform="matrix(0.9999 0 0 1 655.5327 101.2515)" fill="#4A7046" font-family="'GillSans-Light'" font-size="32.8967">251  252A  252B  253</text>
<text transform="matrix(0.9999 0 0 1 968.874 100.1519)" fill="#934A50" font-family="'GillSans-Light'" font-size="32.8967">Bordeaux  </text>
<text transform="matrix(0.9999 0 0 1 1104.6797 100.1519)" fill="#934A50" font-family="'GillSans-Light'" font-size="32.8967">342A  343  361  362</text>
<text transform="matrix(0.9999 0 0 1 1389.5547 100.4536)" fill="#C68952" font-family="'GillSans-Light'" font-size="32.8967">Havane </text>
<text transform="matrix(0.9999 0 0 1 1522.8975 100.4536)" fill="#C68952" font-family="'GillSans-Light'" font-size="32.8967">351 352</text>
<text transform="matrix(0.9999 0 0 1 1652.0918 99.7173)" fill="#EBD74E" font-family="'GillSans-Light'" font-size="32.8967">Grand</text>
<text transform="matrix(8.183381e-16 -1.0001 1 -1.066992e-15 35.6631 287.3174)" fill="#030303" font-family="'GillSans-Light'" font-size="40.202">Monday</text>
<text transform="matrix(0 -1.0001 1 0 36.0229 511.668)" fill="#030303" font-family="'GillSans-Light'" font-size="40.202">Tuesday</text>
<text transform="matrix(1.118932e-15 -1.0001 1 2.133984e-15 34.4604 759.8828)" fill="#030303" font-family="'GillSans-Light'" font-size="40.202">Wednesday</text>
<text transform="matrix(-5.379963e-16 -1.0001 1 0 35.0151 956.5371)" fill="#030303" font-family="'GillSans-Light'" font-size="40.202">Thursday</text>
<g id="Bleu">
	<g>
		<rect x="288.378" y="112.242" fill="#3F6989" width="342.939" height="860.84"/>
	</g>
</g>
<g id="Green">
	<g>
		<rect x="650.933" y="112.242" fill="#4A7046" width="291.586" height="860.84"/>
	</g>
</g>
<g id="Bordeaux">
	<g>
		<rect x="965.412" y="112.242" fill="#934A50" width="407.597" height="860.84"/>
	</g>
</g>
<g id="Bordeaux_copia">
	<g>
		<rect x="1389.665" y="112.242" fill="#C68952" width="239.18" height="860.84"/>
	</g>
</g>
<g id="Bordeaux_copia_2">
	<g>
		<rect x="1643.467" y="112.242" fill="#EBD74E" width="98.533" height="860.84"/>
	</g>
</g>
<text transform="matrix(0.9999 0 0 1 852.062 40.5142)" fill="#030303" font-family="'GillSans-Light'" font-size="40.2071">SCHEDULE</text>
</svg>
